# xmcd
#
# Track frame offsets: 
#        200
#        14367
#        30507
#        46332
#        55705
#        65750
#        79797
#        90440
#        101767
#        112025
#        128442
#        139627
#        151562
#        164670
#        180280
#        193622
#
# Disc length: 2708 seconds
#
# Revision: 0
# Processed by: cddbd v1.4PL0 Copyright (c) Steve Scherf et al.
# Submitted via: ExactAudioCopy v0.90b4
#
DISCID=c20a9210
DTITLE=Country Gentleman - Country songs, old and new
DYEAR=1990
DGENRE=Bluegrass
TTITLE0=Roving Rambler
TTITLE1=Little Sparrow
TTITLE2=Drifting Too far
TTITLE3=Weeping Willow
TTITLE4=Tomorrow's My Wedding Day
TTITLE5=Story of Charlie Lawson
TTITLE6=Turkey Knob
TTITLE7=Paul and Silas
TTITLE8=Ellen Smith
TTITLE9=Long Black Veil
TTITLE10=Honky Tonk Rag
TTITLE11=Jessa James
TTITLE12=Have Thine Own Way
TTITLE13=Good Woman's Love
TTITLE14=Double Eagle
TTITLE15=Darling Alalee
EXTD=
EXTT0=
EXTT1=
EXTT2=
EXTT3=
EXTT4=
EXTT5=
EXTT6=
EXTT7=
EXTT8=
EXTT9=
EXTT10=
EXTT11=
EXTT12=
EXTT13=
EXTT14=
EXTT15=
PLAYORDER=
